<svg id="Capa_1" enable-background="new 0 0 512 512" height="512" viewBox="0 0 512 512" width="512"
     xmlns="http://www.w3.org/2000/svg">
    <g>
        <path d="m497 91h-482c-8.284 0-15 6.716-15 15v300c0 8.284 6.716 15 15 15h482c8.284 0 15-6.716 15-15v-300c0-8.284-6.716-15-15-15zm-135 240h-30v-30h30zm-60 60h-271.603c7.623-145.271 125.299-262.095 271.603-269.612zm30-30h30v30h-30zm60 28.924v-88.934h88.924c-6.597 45.926-43.008 82.337-88.924 88.934zm-60-118.924v-149.311c79.035 7.157 142.154 70.276 149.311 149.311zm-302-150.01h152.333c-67.27 31.543-121.272 85.844-152.333 151.25zm452 270.01h-20.251c7.442-6.019 14.233-12.81 20.251-20.251zm-61.195-270h61.195v61.194c-15.576-24.669-36.525-45.618-61.195-61.194z"/>
    </g>
</svg>
